<?xml version="1.0" standalone="no"?>
<!DOCTYPE svg PUBLIC "-//W3C//DTD SVG 20010904//EN"
 "http://www.w3.org/TR/2001/REC-SVG-20010904/DTD/svg10.dtd">
<svg version="1.0" xmlns="http://www.w3.org/2000/svg"
 width="600.000000pt" height="454.000000pt" viewBox="0 0 600.000000 454.000000"
 preserveAspectRatio="xMidYMid meet">
<g transform="translate(0.000000,454.000000) scale(0.100000,-0.100000)"
fill="#000000" stroke="none">
<path d="M2515 4400 c3 -5 8 -10 11 -10 2 0 4 5 4 10 0 6 -5 10 -11 10 -5 0
-7 -4 -4 -10z"/>
<path d="M1761 4094 c0 -11 3 -14 6 -6 3 7 2 16 -1 19 -3 4 -6 -2 -5 -13z"/>
<path d="M2914 3946 c-61 -28 -95 -72 -101 -130 -13 -110 111 -200 273 -199
242 2 299 263 73 336 -77 25 -183 22 -245 -7z m221 -12 c72 -18 100 -35 126
-77 27 -43 21 -117 -12 -154 -82 -88 -270 -86 -375 5 -35 30 -46 61 -40 106
17 111 144 161 301 120z"/>
<path d="M2987 3880 c-9 -6 -22 -8 -29 -4 -6 4 -8 3 -5 -3 4 -6 -2 -18 -14
-28 -15 -14 -19 -29 -17 -61 2 -23 5 -42 8 -41 3 1 18 -7 34 -18 36 -24 49
-27 109 -28 55 -1 96 24 112 67 11 33 -6 68 -47 99 -31 23 -123 33 -151 17z
m120 -22 c69 -29 85 -80 37 -117 -57 -45 -185 -15 -201 47 -5 20 0 31 26 54
35 31 88 37 138 16z"/>
<path d="M2497 3929 c7 -7 15 -10 18 -7 3 3 -2 9 -12 12 -14 6 -15 5 -6 -5z"/>
<path d="M1765 3640 c3 -5 8 -10 11 -10 2 0 4 5 4 10 0 6 -5 10 -11 10 -5 0
-7 -4 -4 -10z"/>
<path d="M1795 3353 c61 -58 148 -140 195 -181 80 -72 136 -124 290 -267 119
-111 344 -317 455 -416 27 -24 65 -60 85 -79 l36 -35 3 -144 3 -144 -109 98
c-59 55 -148 138 -198 185 -49 47 -150 141 -224 210 -74 69 -160 149 -190 178
-31 30 -123 117 -205 195 -82 78 -168 161 -190 183 l-41 42 1 -91 2 -91 43
-40 c24 -22 98 -92 165 -155 135 -130 177 -170 384 -361 80 -74 179 -166 220
-206 41 -39 135 -127 207 -195 131 -122 133 -125 134 -169 0 -25 6 -160 13
-300 13 -252 21 -532 21 -723 l0 -97 248 0 247 0 -5 38 c-6 43 -12 302 -20
822 l-6 365 53 44 c29 24 87 74 128 111 156 139 571 508 715 635 206 182 193
165 197 263 2 45 1 82 0 82 -2 0 -61 -51 -130 -112 -143 -126 -131 -115 -203
-183 -30 -28 -115 -104 -189 -170 -74 -66 -137 -122 -140 -125 -3 -3 -45 -41
-95 -85 -49 -44 -95 -84 -101 -90 -118 -106 -228 -201 -235 -203 -5 -2 -9 55
-9 127 0 99 3 132 14 138 7 4 53 44 102 89 144 131 296 268 333 300 19 16 62
54 95 85 34 31 84 76 112 100 29 24 105 91 169 149 159 142 241 210 253 210 7
0 5 87 -2 97 -1 1 -569 5 -1262 8 -692 3 -1308 7 -1369 10 l-110 5 110 -107z
m2238 66 l377 0 0 -26 c0 -26 -34 -73 -52 -73 -5 0 -24 -15 -42 -34 -19 -18
-74 -66 -123 -107 -48 -40 -104 -89 -123 -109 -19 -19 -64 -60 -100 -89 -36
-30 -74 -64 -85 -75 -47 -48 -164 -146 -176 -146 -7 0 -10 -3 -7 -6 6 -5 -17
-27 -183 -178 -144 -132 -172 -160 -185 -184 -9 -18 -12 -56 -8 -136 2 -61 7
-120 10 -130 4 -11 5 -51 3 -90 -5 -110 -3 -339 5 -581 3 -121 9 -324 12 -452
l5 -232 -196 -1 c-111 0 -204 4 -215 10 -13 7 -20 6 -23 -3 -3 -6 -6 13 -6 43
-1 30 -4 114 -6 185 -3 72 -10 283 -15 470 -6 187 -13 365 -17 395 -3 30 -5
63 -5 72 0 10 -5 15 -12 12 -11 -4 -63 41 -230 201 -18 17 -71 67 -119 112
-48 44 -87 87 -87 94 0 7 -3 9 -7 6 -3 -4 -34 19 -68 51 -33 31 -114 107 -180
167 -65 61 -145 135 -176 165 -32 30 -95 91 -141 134 -46 44 -81 84 -80 90 2
6 0 8 -4 3 -4 -4 -16 0 -26 10 -14 12 -18 31 -18 76 l0 60 125 -125 c69 -68
125 -122 125 -120 0 2 38 -34 85 -81 47 -47 85 -83 85 -81 0 2 24 -20 53 -49
30 -28 77 -74 106 -100 28 -27 48 -53 45 -59 -4 -7 -2 -8 5 -4 7 5 34 -14 69
-47 31 -30 84 -81 117 -112 33 -32 74 -69 90 -83 90 -75 153 -136 149 -144 -3
-4 0 -8 7 -8 7 0 25 -12 41 -27 15 -14 31 -23 35 -19 10 9 17 269 9 302 -4 13
-33 49 -66 80 -32 32 -56 62 -53 67 3 6 1 7 -6 3 -14 -9 -103 73 -94 87 3 6 1
7 -6 3 -6 -4 -33 13 -63 41 -28 26 -83 77 -122 113 -102 94 -238 221 -258 241
-9 9 -14 20 -10 24 4 4 2 5 -4 3 -6 -1 -46 29 -89 67 -42 39 -107 97 -144 129
-36 33 -100 93 -141 134 l-75 74 955 -6 c525 -4 1125 -6 1333 -7z m396 -412
c1 -52 1 -53 -56 -108 -32 -30 -85 -77 -118 -104 -33 -26 -80 -68 -105 -91
-25 -23 -49 -44 -54 -46 -10 -3 -101 -86 -167 -152 -20 -19 -48 -40 -62 -45
-15 -6 -27 -17 -27 -24 0 -7 -12 -24 -27 -37 -42 -36 -163 -142 -188 -165 -50
-46 -109 -90 -117 -88 -4 2 -8 -3 -8 -10 0 -21 -47 -60 -61 -52 -8 5 -10 4 -5
-3 6 -11 -60 -81 -77 -82 -4 0 -7 27 -6 61 2 48 6 62 20 67 23 9 418 358 789
697 111 101 261 235 265 235 1 0 3 -24 4 -53z"/>
<path d="M1952 3364 c-8 -4 11 -29 55 -72 37 -36 67 -69 65 -74 -1 -5 1 -7 6
-4 4 2 50 -35 101 -85 51 -49 95 -89 98 -89 4 0 62 -52 133 -119 19 -18 34
-37 32 -42 -1 -5 2 -8 7 -7 12 4 161 -139 153 -147 -3 -3 1 -3 10 0 10 4 23
-3 35 -17 10 -13 43 -45 73 -73 30 -27 54 -54 52 -58 -1 -5 2 -6 7 -3 5 3 27
-15 50 -40 23 -25 41 -43 41 -39 0 3 20 -13 45 -36 24 -23 42 -46 38 -52 -3
-6 -1 -7 5 -3 9 5 12 -8 13 -46 1 -87 8 -351 14 -528 14 -433 20 -647 20 -775
0 -77 4 -143 8 -146 4 -3 3 -19 -3 -35 -6 -16 -8 -25 -4 -22 4 4 16 1 28 -7
26 -19 193 -20 218 -2 12 10 15 26 12 72 -4 78 -22 741 -30 1162 -5 260 -4
336 6 348 7 8 17 12 23 8 5 -3 7 -1 4 4 -6 9 29 44 177 178 13 11 54 47 92 80
38 33 93 83 123 110 83 77 92 85 176 160 43 39 83 75 89 80 6 6 58 53 116 105
170 152 201 183 193 191 -5 4 -154 10 -333 13 -480 9 -1933 16 -1948 10z m483
-18 c231 -3 725 -7 1098 -8 372 -1 677 -5 677 -9 0 -4 -6 -12 -14 -16 -8 -4
-76 -64 -153 -133 -185 -168 -194 -175 -379 -341 -367 -329 -419 -375 -441
-399 -22 -23 -23 -31 -19 -95 3 -38 8 -236 12 -438 3 -203 7 -381 9 -395 2
-15 6 -169 10 -342 l8 -315 -99 3 c-54 2 -100 5 -101 6 -8 7 -12 115 -18 406
-4 179 -9 348 -11 375 -1 28 -6 199 -9 380 -3 182 -8 344 -11 361 -3 25 -32
57 -127 146 -169 158 -484 447 -592 543 -50 44 -124 112 -165 151 -41 40 -87
82 -102 94 -31 24 -37 44 -10 36 9 -2 206 -7 437 -10z"/>
<path d="M2780 3196 c0 -5 106 -109 212 -207 l36 -34 4 -127 3 -128 63 0 c34
0 65 -1 69 -2 4 -2 5 26 4 62 -4 74 -4 143 -2 181 1 26 137 177 194 213 15 10
27 22 27 26 0 4 -40 7 -89 8 l-88 0 -59 -59 c-32 -32 -62 -59 -66 -59 -5 0
-36 27 -71 60 l-62 60 -72 0 c-39 0 -78 3 -87 6 -9 3 -16 4 -16 0z m235 -96
c33 -33 65 -60 71 -60 5 0 39 29 74 65 51 51 69 64 85 58 11 -3 30 -6 43 -5
12 1 22 -2 22 -6 0 -5 -38 -47 -85 -95 l-84 -87 4 -125 4 -125 -43 0 -43 0 -6
68 c-4 37 -7 90 -7 119 l0 52 -107 106 -108 107 60 -6 c57 -6 63 -10 120 -66z"/>
<path d="M3055 2020 c3 -5 8 -10 11 -10 2 0 4 5 4 10 0 6 -5 10 -11 10 -5 0
-7 -4 -4 -10z"/>
<path d="M3060 1889 c0 -5 5 -7 10 -4 6 3 10 8 10 11 0 2 -4 4 -10 4 -5 0 -10
-5 -10 -11z"/>
<path d="M2861 2034 c0 -11 3 -14 6 -6 3 7 2 16 -1 19 -3 4 -6 -2 -5 -13z"/>
<path d="M4508 3223 c7 -3 16 -2 19 1 4 3 -2 6 -13 5 -11 0 -14 -3 -6 -6z"/>
<path d="M4135 3040 c-16 -7 -17 -9 -3 -9 9 -1 20 4 23 9 7 11 7 11 -20 0z"/>
<path d="M1292 2830 c0 -14 2 -19 5 -12 2 6 2 18 0 25 -3 6 -5 1 -5 -13z"/>
<path d="M3868 2803 c7 -3 16 -2 19 1 4 3 -2 6 -13 5 -11 0 -14 -3 -6 -6z"/>
<path d="M3925 2800 c-13 -6 -15 -9 -5 -9 8 0 22 4 30 9 18 12 2 12 -25 0z"/>
<path d="M1178 2763 c7 -3 16 -2 19 1 4 3 -2 6 -13 5 -11 0 -14 -3 -6 -6z"/>
<path d="M1703 2643 l4 -88 89 -86 c49 -47 129 -124 179 -170 149 -140 264
-249 385 -365 107 -102 119 -111 164 -117 51 -7 136 -9 136 -4 0 6 -261 260
-460 447 -107 101 -235 223 -285 270 -185 178 -209 200 -212 200 -2 0 -2 -39
0 -87z m165 -109 c2 -7 12 -14 24 -17 13 -4 17 -10 12 -18 -4 -7 -3 -10 3 -6
6 4 26 -10 44 -31 19 -20 51 -50 70 -67 30 -25 179 -165 408 -384 25 -25 45
-48 44 -53 -2 -4 1 -7 5 -5 5 1 35 -24 67 -55 33 -32 55 -58 50 -59 -32 -3
-93 4 -110 14 -11 5 -40 31 -65 56 -25 25 -66 64 -90 86 -25 22 -44 43 -43 47
2 5 -2 8 -8 8 -18 0 -139 122 -132 133 3 6 1 7 -4 4 -11 -7 -70 45 -327 292
l-87 83 3 53 3 54 65 -62 c36 -34 66 -67 68 -73z"/>
<path d="M4390 2630 c-25 -25 -87 -84 -139 -130 -52 -47 -149 -135 -215 -195
-67 -61 -141 -128 -166 -149 -25 -22 -85 -76 -135 -121 -49 -45 -118 -106
-151 -136 l-61 -54 94 -3 94 -3 57 54 c62 59 123 114 219 198 133 117 322 285
391 350 l72 68 0 80 c0 44 -3 81 -7 83 -5 2 -28 -17 -53 -42z m34 -58 c-1 -57
-2 -59 -54 -108 -30 -27 -62 -57 -72 -66 -10 -10 -20 -18 -23 -18 -2 0 -19
-15 -37 -32 -60 -60 -188 -168 -199 -168 -6 0 -8 -4 -5 -8 8 -13 -33 -44 -47
-36 -7 4 -9 4 -5 -1 4 -4 -6 -19 -21 -34 -127 -116 -174 -156 -184 -153 -7 2
-9 0 -5 -4 4 -4 -10 -22 -32 -42 -36 -31 -47 -35 -100 -36 l-60 -1 48 45 c172
159 233 211 243 204 7 -4 9 -3 6 3 -4 6 12 28 36 49 63 56 233 211 307 279 67
63 202 185 204 185 1 0 1 -26 0 -58z"/>
<path d="M4498 2643 c7 -3 16 -2 19 1 4 3 -2 6 -13 5 -11 0 -14 -3 -6 -6z"/>
<path d="M2584 2571 c7 -11 46 -35 46 -28 0 3 -12 12 -26 22 -15 9 -23 12 -20
6z"/>
<path d="M2630 2526 c0 -2 7 -7 16 -10 8 -3 12 -2 9 4 -6 10 -25 14 -25 6z"/>
<path d="M5241 2454 c0 -11 3 -14 6 -6 3 7 2 16 -1 19 -3 4 -6 -2 -5 -13z"/>
<path d="M3558 2423 c7 -3 16 -2 19 1 4 3 -2 6 -13 5 -11 0 -14 -3 -6 -6z"/>
<path d="M1290 2390 c0 -5 5 -10 11 -10 5 0 7 5 4 10 -3 6 -8 10 -11 10 -2 0
-4 -4 -4 -10z"/>
<path d="M2335 2360 c3 -5 8 -10 11 -10 2 0 4 5 4 10 0 6 -5 10 -11 10 -5 0
-7 -4 -4 -10z"/>
<path d="M4358 2353 c7 -3 16 -2 19 1 4 3 -2 6 -13 5 -11 0 -14 -3 -6 -6z"/>
<path d="M4238 2263 c7 -3 16 -2 19 1 4 3 -2 6 -13 5 -11 0 -14 -3 -6 -6z"/>
<path d="M2430 2256 c0 -2 7 -7 16 -10 8 -3 12 -2 9 4 -6 10 -25 14 -25 6z"/>
<path d="M330 2230 c0 -5 5 -10 11 -10 5 0 7 5 4 10 -3 6 -8 10 -11 10 -2 0
-4 -4 -4 -10z"/>
<path d="M1712 2000 c7 -131 22 -529 22 -597 l0 -43 63 0 c74 0 78 1 77 17 -1
7 -5 138 -8 290 -4 153 -9 317 -12 366 l-6 87 -72 0 -71 0 7 -120z m118 63 c1
-91 11 -494 15 -580 l5 -103 -44 0 c-53 0 -53 0 -55 141 -1 99 -3 158 -16 447
l-6 122 50 0 c49 0 51 -1 51 -27z"/>
<path d="M4295 2078 c2 -18 7 -116 10 -218 3 -102 8 -238 11 -302 l7 -118 46
-1 c25 -1 56 -3 68 -4 l23 -2 -5 176 c-3 97 -8 208 -10 246 -2 39 -4 112 -5
163 l0 92 -74 0 -75 0 4 -32z m118 -10 c6 -25 11 -199 12 -395 0 -68 2 -123 5
-123 3 0 5 -19 5 -43 l0 -42 -47 -3 -46 -3 -6 148 c-3 81 -9 223 -12 316 l-6
167 45 0 c38 0 46 -3 50 -22z"/>
<path d="M2340 1900 c0 -5 5 -10 11 -10 5 0 7 5 4 10 -3 6 -8 10 -11 10 -2 0
-4 -4 -4 -10z"/>
<path d="M2106 1805 c-9 -26 -7 -32 5 -12 6 10 9 21 6 23 -2 3 -7 -2 -11 -11z"/>
<path d="M2765 1800 c3 -5 8 -10 11 -10 2 0 4 5 4 10 0 6 -5 10 -11 10 -5 0
-7 -4 -4 -10z"/>
<path d="M3739 1762 l-205 -2 7 -58 c3 -31 7 -120 8 -197 1 -77 4 -149 6 -160
2 -11 4 -52 4 -92 l1 -71 71 -4 71 -3 -4 133 -3 132 122 0 c94 0 121 3 118 13
-3 6 -6 29 -8 50 l-4 38 -116 1 -117 1 0 60 0 59 201 -3 c196 -4 200 -4 195
16 -3 11 -6 37 -6 58 l0 37 -67 -2 c-38 -2 -160 -4 -274 -6z m321 -53 c0 -25
-4 -38 -10 -34 -13 8 -344 7 -364 -1 -18 -7 -22 -36 -16 -99 l5 -50 115 -5
c115 -5 115 -5 115 -30 l0 -25 -118 -3 -118 -3 2 -127 1 -127 -45 0 -45 -1 -6
231 c-4 126 -9 247 -12 267 l-6 37 242 0 c134 0 245 3 248 6 10 10 12 5 12
-36z"/>
<path d="M4130 1740 c8 -5 20 -10 25 -10 6 0 3 5 -5 10 -8 5 -19 10 -25 10 -5
0 -3 -5 5 -10z"/>
<path d="M2355 1726 c-79 -19 -151 -64 -194 -120 -132 -171 -29 -372 221 -431
40 -9 115 -15 203 -15 l140 0 -2 145 c-1 79 -4 148 -7 154 -3 5 -3 16 0 25 5
14 -10 16 -139 16 l-145 0 -4 -50 -3 -50 78 0 77 0 0 -34 c0 -18 3 -48 6 -65
l7 -31 -90 0 c-75 0 -97 4 -139 25 -63 31 -99 69 -112 117 -31 113 78 219 222
218 53 -1 79 -7 146 -33 9 -4 32 9 58 33 l43 39 -48 21 c-59 26 -170 50 -226
49 -23 0 -64 -6 -92 -13z m171 -16 c48 -9 125 -34 143 -47 10 -7 -34 -43 -51
-43 -11 0 -17 3 -15 8 6 8 -5 10 -108 18 -42 4 -85 1 -110 -6 -22 -7 -42 -12
-45 -12 -3 1 -28 -23 -56 -52 -38 -40 -54 -64 -59 -94 -7 -44 11 -122 32 -135
7 -5 10 -13 7 -19 -4 -6 -3 -8 3 -5 13 8 36 -17 25 -28 -4 -5 -1 -5 6 -1 7 4
12 2 12 -5 0 -7 3 -10 6 -6 4 3 24 -3 45 -14 25 -12 69 -21 127 -25 115 -9
127 1 117 90 -4 34 -12 67 -17 74 -7 7 -35 12 -74 12 l-64 0 0 30 0 30 117 -4
c139 -4 129 9 132 -173 l2 -123 -113 0 c-140 0 -226 14 -295 46 -58 28 -139
103 -154 143 -13 34 -13 129 0 164 18 46 78 110 94 100 5 -3 7 -2 4 4 -9 14
61 51 129 67 74 18 87 18 160 6z"/>
<path d="M2728 1733 c6 -2 18 -2 25 0 6 3 1 5 -13 5 -14 0 -19 -2 -12 -5z"/>
<path d="M1400 1686 c0 -2 7 -7 16 -10 8 -3 12 -2 9 4 -6 10 -25 14 -25 6z"/>
<path d="M718 1653 c7 -3 16 -2 19 1 4 3 -2 6 -13 5 -11 0 -14 -3 -6 -6z"/>
<path d="M4015 1590 c3 -5 8 -10 11 -10 2 0 4 5 4 10 0 6 -5 10 -11 10 -5 0
-7 -4 -4 -10z"/>
<path d="M1280 1556 c0 -2 7 -7 16 -10 8 -3 12 -2 9 4 -6 10 -25 14 -25 6z"/>
<path d="M188 1523 c7 -3 16 -2 19 1 4 3 -2 6 -13 5 -11 0 -14 -3 -6 -6z"/>
<path d="M1915 1519 c-4 -6 -5 -12 -2 -15 2 -3 7 2 10 11 7 17 1 20 -8 4z"/>
<path d="M160 1496 c0 -2 7 -7 16 -10 8 -3 12 -2 9 4 -6 10 -25 14 -25 6z"/>
<path d="M1915 1420 c-3 -6 1 -7 9 -4 18 7 21 14 7 14 -6 0 -13 -4 -16 -10z"/>
<path d="M1820 1291 c0 -5 5 -13 10 -16 6 -3 10 -2 10 4 0 5 -4 13 -10 16 -5
3 -10 2 -10 -4z"/>
<path d="M2131 1283 c7 -12 15 -20 18 -17 3 2 -3 12 -13 22 -17 16 -18 16 -5
-5z"/>
<path d="M1255 1270 c-3 -5 -1 -10 4 -10 6 0 11 5 11 10 0 6 -2 10 -4 10 -3 0
-8 -4 -11 -10z"/>
<path d="M2160 1256 c0 -2 8 -10 18 -17 15 -13 16 -12 3 4 -13 16 -21 21 -21
13z"/>
<path d="M2246 1178 c3 -5 10 -6 15 -3 13 9 11 12 -6 12 -8 0 -12 -4 -9 -9z"/>
<path d="M4888 1153 c6 -2 18 -2 25 0 6 3 1 5 -13 5 -14 0 -19 -2 -12 -5z"/>
<path d="M2598 1123 c7 -3 16 -2 19 1 4 3 -2 6 -13 5 -11 0 -14 -3 -6 -6z"/>
<path d="M1385 1040 c-3 -5 -1 -10 4 -10 6 0 11 5 11 10 0 6 -2 10 -4 10 -3 0
-8 -4 -11 -10z"/>
<path d="M400 950 c0 -5 5 -10 11 -10 5 0 7 5 4 10 -3 6 -8 10 -11 10 -2 0 -4
-4 -4 -10z"/>
<path d="M5387 919 c7 -7 15 -10 18 -7 3 3 -2 9 -12 12 -14 6 -15 5 -6 -5z"/>
<path d="M5938 923 c7 -3 16 -2 19 1 4 3 -2 6 -13 5 -11 0 -14 -3 -6 -6z"/>
<path d="M428 873 c7 -3 16 -2 19 1 4 3 -2 6 -13 5 -11 0 -14 -3 -6 -6z"/>
<path d="M1907 709 c7 -7 15 -10 18 -7 3 3 -2 9 -12 12 -14 6 -15 5 -6 -5z"/>
<path d="M3700 700 c0 -5 5 -10 11 -10 5 0 7 5 4 10 -3 6 -8 10 -11 10 -2 0
-4 -4 -4 -10z"/>
<path d="M4620 700 c-9 -6 -10 -10 -3 -10 6 0 15 5 18 10 8 12 4 12 -15 0z"/>
<path d="M1508 643 c7 -3 16 -2 19 1 4 3 -2 6 -13 5 -11 0 -14 -3 -6 -6z"/>
<path d="M300 626 c0 -3 9 -10 20 -16 11 -6 20 -8 20 -6 0 3 -9 10 -20 16 -11
6 -20 8 -20 6z"/>
<path d="M4652 580 c0 -14 2 -19 5 -12 2 6 2 18 0 25 -3 6 -5 1 -5 -13z"/>
<path d="M5590 451 c0 -6 4 -13 10 -16 6 -3 7 1 4 9 -7 18 -14 21 -14 7z"/>
<path d="M811 424 c0 -11 3 -14 6 -6 3 7 2 16 -1 19 -3 4 -6 -2 -5 -13z"/>
<path d="M120 386 c0 -2 7 -7 16 -10 8 -3 12 -2 9 4 -6 10 -25 14 -25 6z"/>
<path d="M1356 377 c3 -10 9 -15 12 -12 3 3 0 11 -7 18 -10 9 -11 8 -5 -6z"/>
<path d="M735 350 c3 -5 8 -10 11 -10 2 0 4 5 4 10 0 6 -5 10 -11 10 -5 0 -7
-4 -4 -10z"/>
<path d="M2380 310 c0 -5 5 -10 11 -10 5 0 7 5 4 10 -3 6 -8 10 -11 10 -2 0
-4 -4 -4 -10z"/>
<path d="M3595 310 c-3 -5 -1 -10 4 -10 6 0 11 5 11 10 0 6 -2 10 -4 10 -3 0
-8 -4 -11 -10z"/>
<path d="M1008 283 c7 -3 16 -2 19 1 4 3 -2 6 -13 5 -11 0 -14 -3 -6 -6z"/>
<path d="M120 246 c0 -2 7 -7 16 -10 8 -3 12 -2 9 4 -6 10 -25 14 -25 6z"/>
<path d="M1148 113 c7 -3 16 -2 19 1 4 3 -2 6 -13 5 -11 0 -14 -3 -6 -6z"/>
</g>
</svg>
